<mxfile host="app.diagrams.net" modified="2022-03-28T01:26:48.191Z" agent="5.0 (Windows NT 10.0; WOW64) AppleWebKit/537.36 (KHTML, like Gecko) Chrome/86.0.4240.198 Safari/537.36" etag="asZP52ZpOg1zMhiYv07x" version="16.4.5" type="github">
  <diagram id="6a731a19-8d31-9384-78a2-239565b7b9f0" name="Page-1">
    <mxGraphModel dx="2367" dy="1235" grid="1" gridSize="10" guides="1" tooltips="1" connect="1" arrows="1" fold="1" page="1" pageScale="1" pageWidth="1169" pageHeight="827" background="none" math="0" shadow="0">
      <root>
        <mxCell id="0" />
        <mxCell id="1" parent="0" />
        <mxCell id="1353" value="金属应变式传感器" style="ellipse;whiteSpace=wrap;html=1;shadow=0;fontFamily=Helvetica;fontSize=20;fontColor=#FFFFFF;align=center;strokeWidth=3;fillColor=#1699D3;strokeColor=none;" parent="1" vertex="1">
          <mxGeometry x="1280" y="751.5" width="120" height="120" as="geometry" />
        </mxCell>
        <mxCell id="1362" style="endArrow=none;strokeWidth=6;strokeColor=#1699D3;html=1;" parent="1" source="1515" target="1353" edge="1">
          <mxGeometry relative="1" as="geometry" />
        </mxCell>
        <mxCell id="P_r0jZMm2rQdvnXoWjfA-1551" style="edgeStyle=none;shape=connector;rounded=1;orthogonalLoop=1;jettySize=auto;html=1;labelBackgroundColor=default;fontFamily=Helvetica;fontSize=11;fontColor=default;endArrow=none;strokeColor=#64BBE2;strokeWidth=3;" edge="1" parent="1" source="1440" target="P_r0jZMm2rQdvnXoWjfA-1549">
          <mxGeometry relative="1" as="geometry" />
        </mxCell>
        <mxCell id="P_r0jZMm2rQdvnXoWjfA-1554" value="" style="edgeStyle=none;shape=connector;rounded=1;orthogonalLoop=1;jettySize=auto;html=1;labelBackgroundColor=default;fontFamily=Helvetica;fontSize=18;fontColor=default;endArrow=none;strokeColor=#64BBE2;strokeWidth=3;" edge="1" parent="1" source="1440" target="P_r0jZMm2rQdvnXoWjfA-1553">
          <mxGeometry relative="1" as="geometry" />
        </mxCell>
        <mxCell id="P_r0jZMm2rQdvnXoWjfA-1556" value="" style="edgeStyle=none;shape=connector;rounded=1;orthogonalLoop=1;jettySize=auto;html=1;labelBackgroundColor=default;fontFamily=Helvetica;fontSize=18;fontColor=default;endArrow=none;strokeColor=#64BBE2;strokeWidth=3;" edge="1" parent="1" source="1440" target="P_r0jZMm2rQdvnXoWjfA-1555">
          <mxGeometry relative="1" as="geometry" />
        </mxCell>
        <mxCell id="1440" value="&lt;font style=&quot;font-size: 21px&quot;&gt;应变式传感器&lt;/font&gt;" style="rounded=1;fillColor=#64BBE2;strokeColor=none;strokeWidth=3;shadow=0;html=1;fontColor=#FFFFFF;" parent="1" vertex="1">
          <mxGeometry x="1310" y="650" width="150" height="60" as="geometry" />
        </mxCell>
        <mxCell id="1441" value="&lt;font style=&quot;font-size: 21px&quot;&gt;金属丝式应变片&lt;/font&gt;" style="rounded=1;fillColor=#64BBE2;strokeColor=none;strokeWidth=3;shadow=0;html=1;fontColor=#FFFFFF;" parent="1" vertex="1">
          <mxGeometry x="1665" y="920" width="165" height="50" as="geometry" />
        </mxCell>
        <mxCell id="1442" value="&lt;font style=&quot;font-size: 21px&quot;&gt;测量电路&lt;/font&gt;" style="rounded=1;fillColor=#64BBE2;strokeColor=none;strokeWidth=3;shadow=0;html=1;fontColor=#FFFFFF;" parent="1" vertex="1">
          <mxGeometry x="1590" y="760" width="120" height="40" as="geometry" />
        </mxCell>
        <mxCell id="1443" value="&lt;font style=&quot;font-size: 21px&quot;&gt;金属箔式应变片&lt;/font&gt;" style="rounded=1;fillColor=#64BBE2;strokeColor=none;strokeWidth=3;shadow=0;html=1;fontColor=#FFFFFF;" parent="1" vertex="1">
          <mxGeometry x="1330" y="1040" width="160" height="60" as="geometry" />
        </mxCell>
        <mxCell id="1451" value="" style="edgeStyle=none;endArrow=none;strokeWidth=3;strokeColor=#64BBE2;html=1;" parent="1" source="1353" target="1440" edge="1">
          <mxGeometry x="-480" y="150" width="100" height="100" as="geometry">
            <mxPoint x="-480" y="250" as="sourcePoint" />
            <mxPoint x="-380" y="150" as="targetPoint" />
          </mxGeometry>
        </mxCell>
        <mxCell id="1452" value="" style="edgeStyle=none;endArrow=none;strokeWidth=3;strokeColor=#64BBE2;html=1;" parent="1" source="1353" target="1442" edge="1">
          <mxGeometry x="-480" y="150" width="100" height="100" as="geometry">
            <mxPoint x="-480" y="250" as="sourcePoint" />
            <mxPoint x="-380" y="150" as="targetPoint" />
          </mxGeometry>
        </mxCell>
        <mxCell id="1453" value="" style="edgeStyle=none;endArrow=none;strokeWidth=3;strokeColor=#64BBE2;html=1;" parent="1" source="1353" target="1441" edge="1">
          <mxGeometry x="-480" y="150" width="100" height="100" as="geometry">
            <mxPoint x="-480" y="250" as="sourcePoint" />
            <mxPoint x="-380" y="150" as="targetPoint" />
          </mxGeometry>
        </mxCell>
        <mxCell id="1454" value="" style="edgeStyle=none;endArrow=none;strokeWidth=3;strokeColor=#64BBE2;html=1;" parent="1" source="1353" target="1443" edge="1">
          <mxGeometry x="-480" y="150" width="100" height="100" as="geometry">
            <mxPoint x="-480" y="250" as="sourcePoint" />
            <mxPoint x="-380" y="150" as="targetPoint" />
          </mxGeometry>
        </mxCell>
        <mxCell id="1515" value="应变式传感器" style="ellipse;whiteSpace=wrap;html=1;shadow=0;fontFamily=Helvetica;fontSize=30;fontColor=#2F5B7C;align=center;strokeColor=#2F5B7C;strokeWidth=6;fillColor=#FFFFFF;fontStyle=1;gradientColor=none;" parent="1" vertex="1">
          <mxGeometry x="961" y="676.5" width="270" height="270" as="geometry" />
        </mxCell>
        <mxCell id="1517" value="&lt;font style=&quot;font-size: 21px&quot;&gt;压阻效应&lt;/font&gt;" style="rounded=1;fillColor=#a29dc5;strokeColor=none;strokeWidth=3;shadow=0;html=1;fontColor=#FFFFFF;" parent="1" vertex="1">
          <mxGeometry x="480" y="690" width="120" height="40" as="geometry" />
        </mxCell>
        <mxCell id="1518" value="&lt;font style=&quot;font-size: 21px&quot;&gt;晶相、晶体&lt;/font&gt;" style="rounded=1;fillColor=#a29dc5;strokeColor=none;strokeWidth=3;shadow=0;html=1;fontColor=#FFFFFF;" parent="1" vertex="1">
          <mxGeometry x="620" y="600" width="120" height="40" as="geometry" />
        </mxCell>
        <mxCell id="1522" value="&lt;font style=&quot;font-size: 21px&quot;&gt;压阻系数&lt;/font&gt;" style="rounded=1;fillColor=#a29dc5;strokeColor=none;strokeWidth=3;shadow=0;html=1;fontColor=#FFFFFF;" parent="1" vertex="1">
          <mxGeometry x="445" y="810" width="120" height="40" as="geometry" />
        </mxCell>
        <mxCell id="1528" value="" style="edgeStyle=none;endArrow=none;strokeWidth=3;strokeColor=#A29DC5;html=1;" parent="1" source="1516" target="1517" edge="1">
          <mxGeometry x="-1255" y="-295" width="100" height="100" as="geometry">
            <mxPoint x="-1255" y="-195" as="sourcePoint" />
            <mxPoint x="-1155" y="-295" as="targetPoint" />
          </mxGeometry>
        </mxCell>
        <mxCell id="1529" value="&lt;font style=&quot;font-size: 21px&quot;&gt;固态压阻器件&lt;/font&gt;" style="rounded=1;fillColor=#a29dc5;strokeColor=none;strokeWidth=3;shadow=0;html=1;fontColor=#FFFFFF;" parent="1" vertex="1">
          <mxGeometry x="620" y="970" width="140" height="60" as="geometry" />
        </mxCell>
        <mxCell id="1530" value="" style="edgeStyle=none;endArrow=none;strokeWidth=3;strokeColor=#A29DC5;html=1;" parent="1" source="1516" target="1518" edge="1">
          <mxGeometry x="-1255" y="-295" width="100" height="100" as="geometry">
            <mxPoint x="-1255" y="-195" as="sourcePoint" />
            <mxPoint x="-1155" y="-295" as="targetPoint" />
          </mxGeometry>
        </mxCell>
        <mxCell id="1534" value="" style="edgeStyle=none;endArrow=none;strokeWidth=3;strokeColor=#A29DC5;html=1;" parent="1" source="1516" target="1522" edge="1">
          <mxGeometry x="-1255" y="-295" width="100" height="100" as="geometry">
            <mxPoint x="-1255" y="-195" as="sourcePoint" />
            <mxPoint x="-1155" y="-295" as="targetPoint" />
          </mxGeometry>
        </mxCell>
        <mxCell id="1540" value="" style="edgeStyle=none;endArrow=none;strokeWidth=3;strokeColor=#A29DC5;html=1;" parent="1" source="1516" target="1529" edge="1">
          <mxGeometry x="-1255" y="-295" width="100" height="100" as="geometry">
            <mxPoint x="-1255" y="-195" as="sourcePoint" />
            <mxPoint x="-1155" y="-295" as="targetPoint" />
          </mxGeometry>
        </mxCell>
        <mxCell id="1542" style="edgeStyle=none;rounded=0;html=1;exitX=0.5;exitY=1;endArrow=none;endFill=0;jettySize=auto;orthogonalLoop=1;strokeColor=#736CA8;strokeWidth=2;fillColor=#64bbe2;fontSize=20;fontColor=#23445D;" parent="1" source="1529" target="1529" edge="1">
          <mxGeometry relative="1" as="geometry" />
        </mxCell>
        <mxCell id="1516" value="压阻式传感器" style="ellipse;whiteSpace=wrap;html=1;shadow=0;fontFamily=Helvetica;fontSize=20;fontColor=#FFFFFF;align=center;strokeWidth=3;fillColor=#736ca8;strokeColor=none;" parent="1" vertex="1">
          <mxGeometry x="690" y="751.5" width="120" height="120" as="geometry" />
        </mxCell>
        <mxCell id="P_r0jZMm2rQdvnXoWjfA-1543" value="" style="endArrow=none;strokeWidth=6;strokeColor=#736CA8;html=1;entryX=1;entryY=0.5;entryDx=0;entryDy=0;" edge="1" parent="1" source="1515" target="1516">
          <mxGeometry relative="1" as="geometry">
            <mxPoint x="961.149233153255" y="805.1540815601531" as="sourcePoint" />
            <mxPoint x="780" y="840" as="targetPoint" />
          </mxGeometry>
        </mxCell>
        <mxCell id="P_r0jZMm2rQdvnXoWjfA-1549" value="&lt;font style=&quot;font-size: 15px&quot;&gt;&lt;font style=&quot;vertical-align: inherit ; font-size: 18px&quot;&gt;&lt;font style=&quot;vertical-align: inherit ; font-size: 18px&quot;&gt;&lt;font style=&quot;vertical-align: inherit ; font-size: 18px&quot;&gt;&lt;font style=&quot;vertical-align: inherit ; font-size: 18px&quot;&gt;&lt;font style=&quot;vertical-align: inherit&quot;&gt;&lt;font style=&quot;vertical-align: inherit&quot;&gt;圆柱式力与荷重传感器&lt;/font&gt;&lt;/font&gt;&lt;/font&gt;&lt;/font&gt;&lt;/font&gt;&lt;/font&gt;&lt;/font&gt;" style="ellipse;whiteSpace=wrap;html=1;fillColor=#64BBE2;strokeColor=none;fontColor=#FFFFFF;rounded=1;strokeWidth=3;shadow=0;" vertex="1" parent="1">
          <mxGeometry x="1140" y="490" width="180" height="100" as="geometry" />
        </mxCell>
        <mxCell id="P_r0jZMm2rQdvnXoWjfA-1553" value="&lt;font style=&quot;vertical-align: inherit&quot;&gt;&lt;font style=&quot;vertical-align: inherit ; font-size: 18px&quot;&gt;&lt;font style=&quot;vertical-align: inherit&quot;&gt;&lt;font style=&quot;vertical-align: inherit&quot;&gt;梁氏力传感器&lt;/font&gt;&lt;/font&gt;&lt;/font&gt;&lt;/font&gt;" style="ellipse;whiteSpace=wrap;html=1;fillColor=#64BBE2;strokeColor=none;fontColor=#FFFFFF;rounded=1;strokeWidth=3;shadow=0;" vertex="1" parent="1">
          <mxGeometry x="1370" y="480" width="180" height="110" as="geometry" />
        </mxCell>
        <mxCell id="P_r0jZMm2rQdvnXoWjfA-1555" value="&lt;font style=&quot;vertical-align: inherit&quot;&gt;&lt;font style=&quot;vertical-align: inherit&quot;&gt;是的应变式压力传感器&lt;/font&gt;&lt;/font&gt;" style="ellipse;whiteSpace=wrap;html=1;fillColor=#64BBE2;strokeColor=none;fontColor=#FFFFFF;rounded=1;strokeWidth=3;shadow=0;" vertex="1" parent="1">
          <mxGeometry x="1555" y="650" width="120" height="60" as="geometry" />
        </mxCell>
      </root>
    </mxGraphModel>
  </diagram>
</mxfile>
